<?xml version="1.0" standalone="no"?><!DOCTYPE svg PUBLIC "-//W3C//DTD SVG 1.1//EN" "http://www.w3.org/Graphics/SVG/1.1/DTD/svg11.dtd"><svg t="1513080197890" class="icon" style="" viewBox="0 0 1024 1024" version="1.1" xmlns="http://www.w3.org/2000/svg" p-id="1015" xmlns:xlink="http://www.w3.org/1999/xlink" width="200" height="200"><defs><style type="text/css"></style></defs><path d="M884.364 69.818h129.057v97.322H913.9c-104.77 103.353-209.391 206.895-314.245 310.162-34.74-34.485-67.576-70.749-101.068-106.42-25.176-26.953-50.311-53.929-75.509-80.84-123.113 107.33-246.14 214.765-369.275 322.073-10.642-12.229-21.368-24.373-31.947-36.665C144.502 468.374 267.298 361.51 389.84 254.329c13.097-9.627 24.246-21.517 36.37-32.307 57.927 62.201 116.046 124.213 173.973 186.414 91.06-89.748 181.972-179.665 272.99-269.456 3.533-3.639 7.13-7.214 11.15-10.345 0.105-19.613 0-39.204 0.042-58.817zM897.058 399.868h103.67v552.198h-103.67V399.868zM600.86 575.471h103.669v376.595h-103.67V575.471zM306.777 632.595h103.67v319.471h-103.67V632.595zM8.463 748.959h103.67v203.107H8.462V748.96z" fill="" p-id="1016"></path></svg>