<?xml version="1.0" standalone="no"?><!DOCTYPE svg PUBLIC "-//W3C//DTD SVG 1.1//EN" "http://www.w3.org/Graphics/SVG/1.1/DTD/svg11.dtd"><svg t="1513082615099" class="icon" style="" viewBox="0 0 1024 1024" version="1.1" xmlns="http://www.w3.org/2000/svg" p-id="799" xmlns:xlink="http://www.w3.org/1999/xlink" width="200" height="200"><defs><style type="text/css"></style></defs><path d="M905.628032 101.365642h-783.161816c-30.894637 0-55.940057 25.045419-55.940057 55.940057v503.461533c0 30.894637 25.045419 55.940057 55.940057 55.940056H482.58097v104.887862h-192.294584c-17.377786 0-31.466666 14.087856-31.466666 31.466666 0 17.377786 14.087856 31.466666 31.466666 31.466666h447.521476c17.377786 0 31.466666-14.087856 31.466666-31.466666 0-17.377786-14.08888-31.466666-31.466666-31.466666H545.514301v-104.887862h360.114755c30.894637 0 55.940057-25.045419 55.940056-55.940056v-503.461533c-0.001023-30.894637-25.046443-55.940057-55.94108-55.940057z m-1.838881 555.688012h-779.483031v-496.034377h779.483031v496.034377z" fill="" p-id="800"></path><path d="M447.741487 584.294536c16.214287 0 29.335119-13.120832 29.335119-29.335118v-283.500843c0-16.21531-13.120832-29.335119-29.335119-29.335119-16.214287 0-29.335119 13.120832-29.335119 29.335119v283.500843c0 16.214287 13.120832 29.335119 29.335119 29.335118zM722.790844 584.294536c16.214287 0 29.335119-13.120832 29.335119-29.335118V351.043145c0-16.214287-13.120832-29.335119-29.335119-29.335119s-29.335119 13.120832-29.335119 29.335119v203.916273c0 16.214287 13.120832 29.335119 29.335119 29.335118zM310.230624 584.294536c16.21531 0 29.336142-13.120832 29.335118-29.335118V351.043145c0-16.214287-13.120832-29.335119-29.335118-29.335119s-29.335119 13.120832-29.335119 29.335119v203.916273c0 16.214287 13.120832 29.335119 29.335119 29.335118zM585.251328 584.294536c16.21531 0 29.336142-13.120832 29.335118-29.335118V401.921929c0-16.214287-13.120832-29.335119-29.335118-29.335119-16.214287 0-29.335119 13.120832-29.335119 29.335119v153.037489c0 16.214287 13.120832 29.335119 29.335119 29.335118z" fill="" p-id="801"></path></svg>