<?xml version="1.0" standalone="no"?><!DOCTYPE svg PUBLIC "-//W3C//DTD SVG 1.1//EN" "http://www.w3.org/Graphics/SVG/1.1/DTD/svg11.dtd"><svg t="1513239346544" class="icon" style="" viewBox="0 0 1024 1024" version="1.1" xmlns="http://www.w3.org/2000/svg" p-id="967" xmlns:xlink="http://www.w3.org/1999/xlink" width="200" height="200"><defs><style type="text/css"></style></defs><path d="M510.4 63.9c-247.2 0-447.6 200.4-447.6 447.6C62.9 758.6 263.3 959 510.4 959S958 758.6 958 511.4c0-247.2-200.4-447.5-447.6-447.5z m0 831.2c-211.9 0-383.6-171.8-383.6-383.6s171.8-383.6 383.6-383.6S894 299.7 894 511.5 722.3 895.1 510.4 895.1z" p-id="968"></path><path d="M509.1 426.2c17.7 0 32 14.3 32 32v277.1c0 17.7-14.3 32-32 32s-32-14.3-32-32V458.1c0-17.6 14.4-31.9 32-31.9zM509.1 277c17.7 0 32 14.3 32 32v42.6c0 17.7-14.3 32-32 32s-32-14.3-32-32V309c0-17.7 14.4-32 32-32z" p-id="969"></path></svg>