<?xml version="1.0" standalone="no"?><!DOCTYPE svg PUBLIC "-//W3C//DTD SVG 1.1//EN" "http://www.w3.org/Graphics/SVG/1.1/DTD/svg11.dtd"><svg t="1513082909728" class="icon" style="" viewBox="0 0 1024 1024" version="1.1" xmlns="http://www.w3.org/2000/svg" p-id="2315" xmlns:xlink="http://www.w3.org/1999/xlink" width="200" height="200"><defs><style type="text/css"></style></defs><path d="M512 0C229.184 0 0 229.184 0 512s229.184 512 512 512 512-229.216 512-512S794.784 0 512 0z m316.768 828.768a445.664 445.664 0 0 1-142.432 96C631.136 948.192 572.512 960 512.032 960s-119.136-11.808-174.304-35.136a448.288 448.288 0 0 1-142.432-96 445.664 445.664 0 0 1-96-142.432c-23.424-55.296-35.232-113.92-35.232-174.4s11.808-119.136 35.136-174.304a448.288 448.288 0 0 1 96-142.432 445.664 445.664 0 0 1 142.432-96c55.296-23.424 113.92-35.232 174.4-35.232s119.136 11.808 174.304 35.136a448.288 448.288 0 0 1 142.432 96 445.664 445.664 0 0 1 96 142.432c23.424 55.296 35.232 113.92 35.232 174.4s-11.808 119.136-35.136 174.304a445.504 445.504 0 0 1-96.128 142.432z m-316.352-339.616L384 352H292.992v384.704H384v-255.328l128.416 137.152L640 481.376v255.328h91.872V352H640z" p-id="2316"></path></svg>