<?xml version="1.0" standalone="no"?><!DOCTYPE svg PUBLIC "-//W3C//DTD SVG 1.1//EN" "http://www.w3.org/Graphics/SVG/1.1/DTD/svg11.dtd"><svg t="1512645231126" class="icon" style="" viewBox="0 0 1024 1024" version="1.1" xmlns="http://www.w3.org/2000/svg" p-id="1122" xmlns:xlink="http://www.w3.org/1999/xlink" width="200" height="200"><defs><style type="text/css"></style></defs><path d="M68.846262 1023.449742c-5.117249 0-10.234497-1.535175-14.840021-5.117249-9.722773-8.187598-11.257947-23.027619-3.070349-32.750392 4.093799-4.605524 97.227726-118.208445 198.037525-146.865038 12.793122-3.582074 15.863471-15.351746 16.886921-18.93382 0.511725-4.093799 1.535175-14.840021-8.699323-22.004169C144.581543 714.36792 77.03386 581.831178 77.03386 442.130289c0-125.372593 53.731111-245.627938 147.376763-329.550817C319.591448 27.633143 441.893693-11.257947 569.313186 3.070349c209.295472 23.027619 373.047431 192.408552 389.934352 402.727474 12.793122 156.076086-55.778011 303.452849-182.174054 394.539876-10.234497 7.675873-9.211048 18.93382-8.699323 22.004169 0.511725 3.582074 3.582074 14.328296 15.863471 18.422095 101.321524 30.191767 185.244403 141.236064 188.826477 145.841588 7.675873 10.234497 5.628974 25.074519-4.605524 32.750392-10.234497 7.675873-25.074519 5.628974-32.750392-4.605524-1.02345-1.02345-78.80563-103.368424-164.775409-128.954668-25.586244-7.675873-44.008339-28.656593-48.613863-55.266286-4.605524-26.097968 6.140698-52.195937 27.633143-67.547683 113.091197-81.875979 173.986456-213.900996 162.728509-353.090161-14.840021-184.732678-164.775409-339.785314-348.996362-360.254309-114.626371-12.793122-224.135494 22.004169-309.081822 98.251175C171.702961 222.088594 123.600823 329.550817 123.600823 442.130289c0 124.860869 60.383535 244.092764 161.193334 318.29287 20.98072 15.351746 31.215217 41.449715 26.609693 67.547683-4.605524 26.609693-23.539344 48.102138-49.637312 55.266286-86.481503 25.074519-173.986456 130.489842-175.009906 132.025017C82.662833 1020.379393 76.01041 1023.449742 68.846262 1023.449742z" p-id="1123"></path></svg>